<svg width="26" height="26" viewBox="0 0 26 26" fill="none" xmlns="http://www.w3.org/2000/svg">
<path fill-rule="evenodd" clip-rule="evenodd" d="M0 10.335C0 16.0429 4.62714 20.67 10.335 20.67C16.0429 20.67 20.67 16.0429 20.67 10.335C20.67 4.62714 16.0429 0 10.335 0C4.62714 0 0 4.62714 0 10.335ZM18.72 10.335C18.72 14.9659 14.9659 18.72 10.335 18.72C5.70409 18.72 1.95 14.9659 1.95 10.335C1.95 5.70409 5.70409 1.95 10.335 1.95C14.9659 1.95 18.72 5.70409 18.72 10.335ZM25.0644 23.6856C25.4452 24.0663 25.4452 24.6837 25.0644 25.0644C24.6837 25.4452 24.0663 25.4452 23.6856 25.0644L19.0056 20.3844C18.6248 20.0037 18.6248 19.3863 19.0056 19.0056C19.3863 18.6248 20.0037 18.6248 20.3844 19.0056L25.0644 23.6856ZM4.875 10.205C5.23398 10.205 5.525 9.91398 5.525 9.555C5.525 7.32929 7.32929 5.525 9.555 5.525C9.91398 5.525 10.205 5.23398 10.205 4.875C10.205 4.51601 9.91398 4.225 9.555 4.225C6.61132 4.225 4.225 6.61132 4.225 9.555C4.225 9.91398 4.51601 10.205 4.875 10.205Z" fill="#BFC5D2"/>
</svg>
